<?xml version="1.0" encoding="iso-8859-1"?>
<!-- Generator: Adobe Illustrator 19.0.0, SVG Export Plug-In . SVG Version: 6.00 Build 0)  -->
<svg version="1.1" id="Layer_1" xmlns="http://www.w3.org/2000/svg" xmlns:xlink="http://www.w3.org/1999/xlink" x="0px" y="0px"
	 viewBox="0 0 499.2 499.2" style="enable-background:new 0 0 499.2 499.2;" xml:space="preserve">
<path style="fill:#DB5B1B;" d="M249.2,462.4c0,28-20.8,35.2-46.4,35.2H106c-25.6,0-46.4-6.4-46.4-35.2L32.4,261.6
	c0-28,20.8-52,46.4-52h152c25.6,0,46.4,24,46.4,52L249.2,462.4z"/>
<path style="fill:#BC420D;" d="M82,209.6h148.8c25.6,0,46.4,24.8,46.4,52.8l-28,200.8c0,28-18.4,34.4-44,34.4"/>
<path style="fill:#A0320B;" d="M49.2,385.6l11.2,77.6c0,28,20.8,34.4,46.4,34.4h96.8c25.6,0,46.4-6.4,46.4-34.4l11.2-77.6H49.2z"/>
<path style="fill:#892709;" d="M153.2,385.6l49.6,112c25.6,0,46.4-5.6,46.4-33.6l11.2-78.4H153.2z"/>
<g>
	<path style="fill:#FF794A;" d="M48.4,236.8c-8.8,12-11.2,25.6-5.6,30.4c5.6,4.8,17.6,0,26.4-12s11.2-25.6,5.6-30.4
		C68.4,220,57.2,225.6,48.4,236.8z"/>
	<path style="fill:#FF794A;" d="M69.2,370.4c0.8,3.2-1.6,6.4-4.8,7.2l0,0c-2.4,0-5.6-2.4-6.4-5.6l-12-88.8c-0.8-3.2,1.6-6.4,4.8-7.2
		l0,0c3.2-0.8,6.4,1.6,7.2,5.6L69.2,370.4z"/>
</g>
<path style="fill:#DB5B1B;" d="M85.2,470.4c0,3.2-1.6,5.6-4.8,6.4l0,0c-3.2,0.8-5.6-1.6-6.4-4l-10.4-74.4c0-3.2,1.6-5.6,4.8-6.4l0,0
	c3.2-0.8,5.6,1.6,6.4,4L85.2,470.4z"/>
<rect x="98" y="177.6" style="fill:#7DAFA9;" width="112" height="32"/>
<g>
	<rect x="98" y="201.6" style="fill:#579188;" width="112" height="8"/>
	<polyline style="fill:#579188;" points="98,177.6 210,177.6 210,209.6 	"/>
</g>
<g>
	<path style="fill:#E259B1;" d="M229.2,185.6l-30.4-176l0,0c0,0,0,0,0-0.8c0-4.8-20-8.8-44.8-8.8s-44.8,4-44.8,9.6l0,0l0,0
		l-30.4,176l0,0c2.4,0,35.2,7.2,75.2,7.2S226.8,185.6,229.2,185.6L229.2,185.6z"/>
</g>
<path style="fill:#BF3695;" d="M153.2,192.8c40.8,0,73.6-7.2,75.2-7.2l0,0l-29.6-176l0,0c0,0,0,0,0-0.8c0-4.8-20-8.8-44.8-8.8"/>
<path style="fill:#EA86D5;" d="M148.4,5.6c0,1.6-6.4,4-15.2,4.8c-8,0.8-15.2,0.8-15.2-0.8s6.4-4,15.2-4.8
	C141.2,3.2,148.4,3.2,148.4,5.6z"/>
<rect x="146" y="209.6" style="fill:#892709;" width="16" height="168"/>
<g>
	<rect x="330" y="289.6" style="fill:#579188;" width="120" height="32"/>
	<rect x="330" y="289.6" style="fill:#579188;" width="120" height="8"/>
</g>
<polyline style="fill:#7DAFA9;" points="450,321.6 330,321.6 330,289.6 "/>
<path style="fill:#BF3695;" d="M316.4,313.6l30.4,176l0,0c0,0,0,0,0,0.8c0,4.8,20,8.8,44.8,8.8s44.8-4,44.8-9.6l0,0l0,0l30.4-176
	l0,0c-2.4,0-35.2-7.2-75.2-7.2C351.6,306.4,318.8,313.6,316.4,313.6L316.4,313.6z"/>
<path style="fill:#E259B1;" d="M392.4,306.4c-40.8,0-73.6,7.2-75.2,7.2l0,0l30.4,176l0,0c0,0,0,0,0,0.8c0,4.8,20,8.8,44.8,8.8"/>
<path style="fill:#962F83;" d="M397.2,493.6c0-1.6,6.4-4,15.2-4.8c8-0.8,15.2-0.8,15.2,0.8c0,1.6-6.4,4-15.2,4.8
	C404.4,496,397.2,496,397.2,493.6z"/>
<g>
	<rect x="386" y="121.6" style="fill:#00233F;" width="16" height="168"/>
	<polygon style="fill:#00233F;" points="402,121.6 386,121.6 370.8,33.6 418,33.6 	"/>
	<path style="fill:#00233F;" d="M410,125.6c0,2.4-1.6,4-4,4h-24c-2.4,0-4-1.6-4-4l0,0c0-2.4,1.6-4,4-4h24
		C408.4,121.6,410,123.2,410,125.6L410,125.6z"/>
</g>
<ellipse transform="matrix(-0.0493 -0.9988 0.9988 -0.0493 58.4757 692.4475)" style="fill:#EA86D5;" cx="358.8" cy="318.393" rx="5.6" ry="31.2"/>
<g>
</g>
<g>
</g>
<g>
</g>
<g>
</g>
<g>
</g>
<g>
</g>
<g>
</g>
<g>
</g>
<g>
</g>
<g>
</g>
<g>
</g>
<g>
</g>
<g>
</g>
<g>
</g>
<g>
</g>
</svg>
