<?xml version="1.0" encoding="iso-8859-1"?>
<!-- Generator: Adobe Illustrator 19.0.0, SVG Export Plug-In . SVG Version: 6.00 Build 0)  -->
<svg version="1.1" id="Layer_1" xmlns="http://www.w3.org/2000/svg" xmlns:xlink="http://www.w3.org/1999/xlink" x="0px" y="0px"
	 viewBox="0 0 512 512" style="enable-background:new 0 0 512 512;" xml:space="preserve">
<path style="fill:#C65842;" d="M503.652,475.008C431.425,498.483,346.66,512,256,512S80.575,498.483,8.348,475.008l36.132-166.412
	c2.999-13.811,10.141-25.837,19.948-34.891c22.522-20.791,35.939-49.626,35.939-80.297v-76.883c0-7.864,4.018-15.338,10.867-19.187
	c6.783-3.812,11.366-11.083,11.366-19.425v-11.13V34.086V22.261C122.6,9.966,132.553,0,144.833,0h22.233
	c12.279,0,22.233,9.966,22.233,22.261v11.13l0,0c0,36.883,29.863,66.783,66.7,66.783l0,0c36.837,0,66.7-29.9,66.7-66.783l0,0v-11.13
	C322.699,9.966,332.653,0,344.932,0h22.233c12.279,0,22.233,9.966,22.233,22.261v11.825v43.827c0,8.342,4.584,15.613,11.366,19.425
	c6.849,3.849,10.867,11.323,10.867,19.187v76.883c0,30.671,13.417,59.507,35.939,80.297c9.807,9.053,16.949,21.08,19.948,34.891
	L503.652,475.008z"/>
<path style="fill:#FC765B;" d="M267.13,511.923V356.174c0-6.147-4.983-11.13-11.13-11.13s-11.13,4.983-11.13,11.13v155.749
	c-38.438-0.471-75.758-3.365-111.44-8.419l33.182-110.744c1.764-5.889-1.578-12.092-7.467-13.856
	c-5.891-1.765-12.092,1.578-13.856,7.467l-33.35,111.304c-0.24,0.803-0.378,1.611-0.435,2.414
	c-36.471-6.187-71.053-14.648-103.155-25.081l36.132-166.412c2.999-13.811,10.141-25.837,19.948-34.891
	c22.522-20.791,35.939-49.626,35.939-80.297v-76.883c0-7.864,4.018-15.338,10.867-19.187c6.783-3.812,11.366-11.083,11.366-19.425
	v-11.13V34.086V22.261C122.6,9.966,132.553,0,144.833,0h22.233c12.279,0,22.233,9.966,22.233,22.261v11.13l0,0
	c0,36.883,29.863,66.783,66.7,66.783l0,0c36.837,0,66.7-29.9,66.7-66.783l0,0v-11.13C322.699,9.966,332.653,0,344.932,0h22.233
	c12.279,0,22.233,9.966,22.233,22.261v11.825v43.827c0,8.342,4.584,15.613,11.366,19.425c6.849,3.849,10.867,11.323,10.867,19.187
	v76.883c0,30.671,13.417,59.507,35.939,80.297c9.807,9.053,16.949,21.08,19.948,34.891l36.134,166.412
	c-32.101,10.434-66.682,18.894-103.155,25.078c-0.057-0.801-0.195-1.609-0.435-2.411l-33.35-111.304
	c-1.764-5.889-7.967-9.232-13.856-7.467c-5.889,1.764-9.232,7.968-7.467,13.856l33.18,110.736
	C342.884,508.548,305.569,511.452,267.13,511.923z"/>
<path style="fill:#DB5E49;" d="M414.411,233.387c-25.553,6.583-52.619,11.519-80.58,14.729v30.145c0,6.147-4.983,11.13-11.13,11.13
	h-33.309c-13.288,0-25.227-5.859-33.391-15.121c-8.164,9.262-20.104,15.121-33.391,15.121H189.3c-6.147,0-11.13-4.983-11.13-11.13
	v-30.145c-27.962-3.211-55.028-8.146-80.58-14.729c-5.953-1.534-9.535-7.602-8.002-13.556c1.534-5.953,7.599-9.533,13.556-8.002
	c23.795,6.13,48.982,10.782,75.027,13.881v-14.232c0-6.147,4.983-11.13,11.13-11.13h33.308c13.288,0,25.227,5.859,33.391,15.121
	c8.164-9.262,20.104-15.121,33.391-15.121H322.7c6.147,0,11.13,4.983,11.13,11.13v14.231c26.045-3.098,51.233-7.751,75.027-13.881
	c5.954-1.534,12.021,2.049,13.556,8.002C423.946,225.785,420.363,231.854,414.411,233.387z"/>
<path style="fill:#FFA583;" d="M244.87,244.87c0,12.275-9.986,22.261-22.261,22.261H200.43v-29.037c0-0.003,0-0.007,0-0.011v-15.474
	h22.178C234.883,222.609,244.87,232.595,244.87,244.87z M289.391,222.609c-12.275,0-22.261,9.986-22.261,22.261
	s9.986,22.261,22.261,22.261h22.178v-29.026c0-0.011,0-0.022,0-0.032v-15.464H289.391z"/>
<g>
</g>
<g>
</g>
<g>
</g>
<g>
</g>
<g>
</g>
<g>
</g>
<g>
</g>
<g>
</g>
<g>
</g>
<g>
</g>
<g>
</g>
<g>
</g>
<g>
</g>
<g>
</g>
<g>
</g>
</svg>
